HIERARCHY
ROOT Hip
{
	OFFSET 0.000000 0.000000 0.000000 
	CHANNELS 6 Xposition Yposition Zposition Xrotation Yrotation Zrotation
	JOINT LowerSpine
	{
		OFFSET 0.000000 9.015400 -4.878700 
		CHANNELS 3 Xrotation Yrotation Zrotation
		JOINT MiddleSpine
		{
			OFFSET 0.000000 8.227200 0.429800 
			CHANNELS 3 Xrotation Yrotation Zrotation
			JOINT Chest
			{
				OFFSET 0.000000 10.180300 -2.266000 
				CHANNELS 3 Xrotation Yrotation Zrotation
				JOINT Neck
				{
					OFFSET -0.000100 29.121000 3.317500 
					CHANNELS 3 Xrotation Yrotation Zrotation
					JOINT Head
					{
						OFFSET 0.000000 9.353800 2.394300 
						CHANNELS 3 Xrotation Yrotation Zrotation
						End Site
						{
							OFFSET -0.000100 18.226500 -1.149700 
						}
					}
				}
				JOINT LClavicle
				{
					OFFSET 2.316100 22.139000 7.585000 
					CHANNELS 3 Xrotation Yrotation Zrotation
					JOINT LShoulder
					{
						OFFSET 13.530800 3.175600 -5.138400 
						CHANNELS 3 Xrotation Yrotation Zrotation
						JOINT LForearm
						{
							OFFSET 28.742001 -0.102000 -0.249000 
							CHANNELS 3 Xrotation Yrotation Zrotation
							JOINT LHand
							{
								OFFSET 23.976999 0.069500 -0.143600 
								CHANNELS 3 Xrotation Yrotation Zrotation
								JOINT LFinger1
								{
									OFFSET 9.292800 0.812700 2.581100 
									CHANNELS 3 Xrotation Yrotation Zrotation
									JOINT LFinger11
									{
										OFFSET 3.476000 -0.847600 0.612500 
										CHANNELS 3 Xrotation Yrotation Zrotation
										JOINT LFinger12
										{
											OFFSET 2.373000 -0.578800 0.418200 
											CHANNELS 3 Xrotation Yrotation Zrotation
											End Site
											{
												OFFSET 1.688600 -0.504100 0.273900 
											}
										}
									}
								}
								JOINT LFinger2
								{
									OFFSET 9.431500 0.938500 0.224700 
									CHANNELS 3 Xrotation Yrotation Zrotation
									JOINT LFinger21
									{
										OFFSET 4.297800 0.012000 -0.025400 
										CHANNELS 3 Xrotation Yrotation Zrotation
										JOINT LFinger22
										{
											OFFSET 2.382300 0.007300 -0.014500 
											CHANNELS 3 Xrotation Yrotation Zrotation
											End Site
											{
												OFFSET 2.139700 -0.151100 0.002900 
											}
										}
									}
								}
								JOINT LFinger3
								{
									OFFSET 8.938300 0.626400 -2.114600 
									CHANNELS 3 Xrotation Yrotation Zrotation
									JOINT LFinger31
									{
										OFFSET 3.899800 -0.197400 -0.244200 
										CHANNELS 3 Xrotation Yrotation Zrotation
										JOINT LFinger32
										{
											OFFSET 2.222300 -0.111800 -0.139600 
											CHANNELS 3 Xrotation Yrotation Zrotation
											End Site
											{
												OFFSET 1.964900 -0.241600 -0.092900 
											}
										}
									}
								}
								JOINT LFinger4
								{
									OFFSET 8.294400 -0.630300 -3.652000 
									CHANNELS 3 Xrotation Yrotation Zrotation
									JOINT LFinger41
									{
										OFFSET 2.398800 -0.500200 -0.662200 
										CHANNELS 3 Xrotation Yrotation Zrotation
										JOINT LFinger42
										{
											OFFSET 1.759100 -0.366300 -0.485900 
											CHANNELS 3 Xrotation Yrotation Zrotation
											End Site
											{
												OFFSET 1.561300 -0.429000 -0.358200 
											}
										}
									}
								}
								JOINT LFinger0
								{
									OFFSET 1.922400 -1.455000 1.457400 
									CHANNELS 3 Xrotation Yrotation Zrotation
									JOINT LFinger01
									{
										OFFSET 3.579100 -1.175400 2.698400 
										CHANNELS 3 Xrotation Yrotation Zrotation
										JOINT LFinger02
										{
											OFFSET 2.356800 -0.843300 1.698000 
											CHANNELS 3 Xrotation Yrotation Zrotation
											End Site
											{
												OFFSET 1.733100 -0.596600 1.186700 
											}
										}
									}
								}
							}
						}
					}
				}
				JOINT RClavicle
				{
					OFFSET -2.316100 22.139000 7.585000 
					CHANNELS 3 Xrotation Yrotation Zrotation
					JOINT RShoulder
					{
						OFFSET -13.533200 3.176200 -5.139300 
						CHANNELS 3 Xrotation Yrotation Zrotation
						JOINT RForearm
						{
							OFFSET -28.742001 -0.102000 -0.249000 
							CHANNELS 3 Xrotation Yrotation Zrotation
							JOINT RHand
							{
								OFFSET -23.976999 0.069600 -0.143600 
								CHANNELS 3 Xrotation Yrotation Zrotation
								JOINT RFinger1
								{
									OFFSET -9.292800 0.812800 2.581100 
									CHANNELS 3 Xrotation Yrotation Zrotation
									JOINT RFinger11
									{
										OFFSET -3.476000 -0.847600 0.612500 
										CHANNELS 3 Xrotation Yrotation Zrotation
										JOINT RFinger12
										{
											OFFSET -2.372900 -0.578900 0.418300 
											CHANNELS 3 Xrotation Yrotation Zrotation
											End Site
											{
												OFFSET -1.688600 -0.504100 0.273900 
											}
										}
									}
								}
								JOINT RFinger2
								{
									OFFSET -9.431500 0.938600 0.224700 
									CHANNELS 3 Xrotation Yrotation Zrotation
									JOINT RFinger21
									{
										OFFSET -4.297900 0.012000 -0.025400 
										CHANNELS 3 Xrotation Yrotation Zrotation
										JOINT RFinger22
										{
											OFFSET -2.382300 0.007300 -0.014600 
											CHANNELS 3 Xrotation Yrotation Zrotation
											End Site
											{
												OFFSET -2.139700 -0.151100 0.002900 
											}
										}
									}
								}
								JOINT RFinger3
								{
									OFFSET -8.938300 0.626400 -2.114700 
									CHANNELS 3 Xrotation Yrotation Zrotation
									JOINT RFinger31
									{
										OFFSET -3.899800 -0.197400 -0.244200 
										CHANNELS 3 Xrotation Yrotation Zrotation
										JOINT RFinger32
										{
											OFFSET -2.222300 -0.111800 -0.139600 
											CHANNELS 3 Xrotation Yrotation Zrotation
											End Site
											{
												OFFSET -1.964900 -0.241600 -0.092900 
											}
										}
									}
								}
								JOINT RFinger4
								{
									OFFSET -8.294400 -0.630300 -3.652000 
									CHANNELS 3 Xrotation Yrotation Zrotation
									JOINT RFinger41
									{
										OFFSET -2.398800 -0.500200 -0.662200 
										CHANNELS 3 Xrotation Yrotation Zrotation
										JOINT RFinger42
										{
											OFFSET -1.759000 -0.366200 -0.485900 
											CHANNELS 3 Xrotation Yrotation Zrotation
											End Site
											{
												OFFSET -1.561300 -0.429000 -0.358200 
											}
										}
									}
								}
								JOINT RFinger0
								{
									OFFSET -1.922400 -1.454900 1.457200 
									CHANNELS 3 Xrotation Yrotation Zrotation
									JOINT RFinger01
									{
										OFFSET -3.579100 -1.175600 2.698500 
										CHANNELS 3 Xrotation Yrotation Zrotation
										JOINT RFinger02
										{
											OFFSET -2.356700 -0.843200 1.697900 
											CHANNELS 3 Xrotation Yrotation Zrotation
											End Site
											{
												OFFSET -1.733100 -0.596600 1.186700 
											}
										}
									}
								}
							}
						}
					}
				}
			}
		}
	}
	JOINT RThigh
	{
		OFFSET -9.644200 4.075200 -0.795000 
		CHANNELS 3 Xrotation Yrotation Zrotation
		JOINT RShin
		{
			OFFSET -0.771700 -41.948101 0.000000 
			CHANNELS 3 Xrotation Yrotation Zrotation
			JOINT RFoot
			{
				OFFSET 0.000000 -41.190498 0.000000 
				CHANNELS 3 Xrotation Yrotation Zrotation
				JOINT RToe
				{
					OFFSET 0.000000 -4.527200 9.467000 
					CHANNELS 3 Xrotation Yrotation Zrotation
					End Site
					{
						OFFSET 0.000000 0.000000 6.351000 
					}
				}
			}
		}
	}
	JOINT LThigh
	{
		OFFSET 9.644100 4.075500 -0.795000 
		CHANNELS 3 Xrotation Yrotation Zrotation
		JOINT LShin
		{
			OFFSET 0.771800 -41.948399 0.000000 
			CHANNELS 3 Xrotation Yrotation Zrotation
			JOINT LFoot
			{
				OFFSET 0.000000 -41.190498 0.000000 
				CHANNELS 3 Xrotation Yrotation Zrotation
				JOINT LToe
				{
					OFFSET 0.000000 -4.527200 9.467000 
					CHANNELS 3 Xrotation Yrotation Zrotation
					End Site
					{
						OFFSET 0.000000 0.000000 6.351000 
					}
				}
			}
		}
	}
}
MOTION
Frames: 7
Frame Time: 0.033333
0.000000 83.590599 0.000000 0.000000 0.000000 0.000000 0.000000 0.000000 0.000000 2.394385 0.655346 2.085459 2.394385 0.655346 2.085459 0.000000 0.000000 0.000000 0.000000 0.000000 0.000000 0.000000 0.000000 -14.513144 22.616697 -17.465939 -57.356277 0.000000 -31.565418 0.000000 0.000000 0.000000 0.000000 0.000000 0.000000 0.000000 0.000000 0.000000 0.000000 0.000000 0.000000 0.000000 0.000000 0.000000 0.000000 0.000000 0.000000 0.000000 0.000000 0.000000 0.000000 0.000000 0.000000 0.000000 0.000000 0.000000 0.000000 0.000000 0.000000 0.000000 0.000000 0.000000 0.000000 0.000000 0.000000 0.000000 0.000000 0.000000 0.000000 0.000000 0.000000 0.000000 0.000000 0.000000 0.000000 0.000000 0.000000 0.000000 0.000000 0.000000 13.553901 -0.032109 20.076902 57.146591 0.000000 35.059643 0.000000 0.000000 0.000000 0.000000 0.000000 0.000000 0.000000 0.000000 0.000000 0.000000 0.000000 0.000000 0.000000 0.000000 0.000000 0.000000 0.000000 0.000000 0.000000 0.000000 0.000000 0.000000 0.000000 0.000000 0.000000 0.000000 0.000000 0.000000 0.000000 0.000000 0.000000 0.000000 0.000000 0.000000 0.000000 0.000000 0.000000 0.000000 0.000000 0.000000 0.000000 0.000000 0.000000 0.000000 0.000000 0.000000 0.000000 0.000000 0.000000 4.307131 -12.653084 7.746191 13.062000 0.000001 0.000000 -18.319841 0.294496 0.159446 0.000000 0.000000 0.000000 -15.609791 11.697309 2.269682 3.247049 0.000000 0.000000 4.409357 -2.841719 -1.133828 0.000000 0.000000 0.000000 
0.000000 83.590599 0.000000 0.000000 0.000000 0.000000 0.000000 0.000000 0.000000 2.581268 0.562644 1.806435 2.581268 0.562644 1.806435 0.000000 0.000000 0.000000 0.000000 0.000000 0.000000 0.000000 0.000000 -14.578408 23.471155 -17.394466 -57.536636 0.000000 -29.120329 0.000000 0.000000 0.000000 0.000000 0.000000 0.000000 0.000000 0.000000 0.000000 0.000000 0.000000 0.000000 0.000000 0.000000 0.000000 0.000000 0.000000 0.000000 0.000000 0.000000 0.000000 0.000000 0.000000 0.000000 0.000000 0.000000 0.000000 0.000000 0.000000 0.000000 0.000000 0.000000 0.000000 0.000000 0.000000 0.000000 0.000000 0.000000 0.000000 0.000000 0.000000 0.000000 0.000000 0.000000 0.000000 0.000000 0.000000 0.000000 0.000000 0.000000 0.000000 13.609482 -1.110660 21.344841 58.117386 0.000000 33.928516 0.000000 0.000000 0.000000 0.000000 0.000000 0.000000 0.000000 0.000000 0.000000 0.000000 0.000000 0.000000 0.000000 0.000000 0.000000 0.000000 0.000000 0.000000 0.000000 0.000000 0.000000 0.000000 0.000000 0.000000 0.000000 0.000000 0.000000 0.000000 0.000000 0.000000 0.000000 0.000000 0.000000 0.000000 0.000000 0.000000 0.000000 0.000000 0.000000 0.000000 0.000000 0.000000 0.000000 0.000000 0.000000 0.000000 0.000000 0.000000 0.000000 4.961899 -12.658807 7.207032 14.469576 0.000001 0.000000 -19.791691 1.686584 1.187995 0.000000 0.000000 0.000000 -15.000582 12.260249 1.155042 2.310510 0.000000 0.000000 6.083755 -2.375245 -0.916897 0.000000 0.000000 0.000000 
0.000000 83.590599 0.000000 0.000000 0.000000 0.000000 0.000000 0.000000 0.000000 2.810479 0.428796 1.526443 2.810479 0.428796 1.526443 0.000000 0.000000 0.000000 0.000000 0.000000 0.000000 0.000000 0.000000 -14.645212 23.944342 -17.776096 -57.595634 0.000000 -25.742733 0.000000 0.000000 0.000000 0.000000 0.000000 0.000000 0.000000 0.000000 0.000000 0.000000 0.000000 0.000000 0.000000 0.000000 0.000000 0.000000 0.000000 0.000000 0.000000 0.000000 0.000000 0.000000 0.000000 0.000000 0.000000 0.000000 0.000000 0.000000 0.000000 0.000000 0.000000 0.000000 0.000000 0.000000 0.000000 0.000000 0.000000 0.000000 0.000000 0.000000 0.000000 0.000000 0.000000 0.000000 0.000000 0.000000 0.000000 0.000000 0.000000 0.000000 0.000000 13.676423 -1.723735 22.063868 59.011612 0.000000 32.754021 0.000000 0.000000 0.000000 0.000000 0.000000 0.000000 0.000000 0.000000 0.000000 0.000000 0.000000 0.000000 0.000000 0.000000 0.000000 0.000000 0.000000 0.000000 0.000000 0.000000 0.000000 0.000000 0.000000 0.000000 0.000000 0.000000 0.000000 0.000000 0.000000 0.000000 0.000000 0.000000 0.000000 0.000000 0.000000 0.000000 0.000000 0.000000 0.000000 0.000000 0.000000 0.000000 0.000000 0.000000 0.000000 0.000000 0.000000 0.000000 0.000000 6.097293 -12.744580 7.126897 14.504762 0.000001 0.000000 -20.352972 2.700176 1.963587 0.000000 0.000000 0.000000 -14.587763 12.728248 0.517124 2.306967 0.000000 0.000000 7.549063 -2.047568 -0.788609 0.000000 0.000000 0.000000 
0.000000 83.590599 0.000000 0.000000 0.000000 0.000000 0.000000 0.000000 0.000000 3.045393 0.244575 1.245882 3.045393 0.244575 1.245882 0.000000 0.000000 0.000000 0.000000 0.000000 0.000000 0.000000 0.000000 -14.716286 23.480797 -19.599625 -57.761162 0.000000 -20.520775 0.000000 0.000000 0.000000 0.000000 0.000000 0.000000 0.000000 0.000000 0.000000 0.000000 0.000000 0.000000 0.000000 0.000000 0.000000 0.000000 0.000000 0.000000 0.000000 0.000000 0.000000 0.000000 0.000000 0.000000 0.000000 0.000000 0.000000 0.000000 0.000000 0.000000 0.000000 0.000000 0.000000 0.000000 0.000000 0.000000 0.000000 0.000000 0.000000 0.000000 0.000000 0.000000 0.000000 0.000000 0.000000 0.000000 0.000000 0.000000 0.000000 0.000000 0.000000 13.777074 -1.699777 21.748165 59.534878 0.000000 31.561771 0.000000 0.000000 0.000000 0.000000 0.000000 0.000000 0.000000 0.000000 0.000000 0.000000 0.000000 0.000000 0.000000 0.000000 0.000000 0.000000 0.000000 0.000000 0.000000 0.000000 0.000000 0.000000 0.000000 0.000000 0.000000 0.000000 0.000000 0.000000 0.000000 0.000000 0.000000 0.000000 0.000000 0.000000 0.000000 0.000000 0.000000 0.000000 0.000000 0.000000 0.000000 0.000000 0.000000 0.000000 0.000000 0.000000 0.000000 0.000000 0.000000 7.896374 -12.873683 7.387941 13.401378 0.000001 0.000000 -20.077213 3.183902 2.316126 0.000000 0.000000 0.000000 -14.097024 13.199656 0.011079 2.770591 0.000000 0.000000 7.780331 -2.996662 -1.141941 0.000000 0.000000 0.000000 
0.000000 83.590599 0.000000 0.000000 0.000000 0.000000 0.000000 0.000000 0.000000 3.249442 0.017002 0.964973 3.249442 0.017002 0.964973 0.000000 0.000000 0.000000 0.000000 0.000000 0.000000 0.000000 0.000000 -14.792610 22.449396 -22.160004 -57.948978 0.000000 -15.444298 0.000000 0.000000 0.000000 0.000000 0.000000 0.000000 0.000000 0.000000 0.000000 0.000000 0.000000 0.000000 0.000000 0.000000 0.000000 0.000000 0.000000 0.000000 0.000000 0.000000 0.000000 0.000000 0.000000 0.000000 0.000000 0.000000 0.000000 0.000000 0.000000 0.000000 0.000000 0.000000 0.000000 0.000000 0.000000 0.000000 0.000000 0.000000 0.000000 0.000000 0.000000 0.000000 0.000000 0.000000 0.000000 0.000000 0.000000 0.000000 0.000000 0.000000 0.000000 13.929094 -1.117395 20.656023 59.998543 0.000000 30.246975 0.000000 0.000000 0.000000 0.000000 0.000000 0.000000 0.000000 0.000000 0.000000 0.000000 0.000000 0.000000 0.000000 0.000000 0.000000 0.000000 0.000000 0.000000 0.000000 0.000000 0.000000 0.000000 0.000000 0.000000 0.000000 0.000000 0.000000 0.000000 0.000000 0.000000 0.000000 0.000000 0.000000 0.000000 0.000000 0.000000 0.000000 0.000000 0.000000 0.000000 0.000000 0.000000 0.000000 0.000000 0.000000 0.000000 0.000000 0.000000 0.000000 10.115117 -12.917286 7.695117 12.287003 0.000001 0.000000 -18.738035 3.568766 2.547267 0.000000 0.000000 0.000000 -13.360166 13.557186 -0.524835 3.867138 0.000000 0.000000 6.221398 -3.603767 -1.436649 0.000000 0.000000 0.000000 
0.000000 83.590599 0.000000 0.000000 0.000000 0.000000 0.000000 0.000000 0.000000 3.395693 -0.229263 0.687897 3.395693 -0.229263 0.687897 0.000000 0.000000 0.000000 0.000000 0.000000 0.000000 0.000000 0.000000 -14.869574 21.518812 -24.270153 -58.126339 0.000000 -12.288690 0.000000 0.000000 0.000000 0.000000 0.000000 0.000000 0.000000 0.000000 0.000000 0.000000 0.000000 0.000000 0.000000 0.000000 0.000000 0.000000 0.000000 0.000000 0.000000 0.000000 0.000000 0.000000 0.000000 0.000000 0.000000 0.000000 0.000000 0.000000 0.000000 0.000000 0.000000 0.000000 0.000000 0.000000 0.000000 0.000000 0.000000 0.000000 0.000000 0.000000 0.000000 0.000000 0.000000 0.000000 0.000000 0.000000 0.000000 0.000000 0.000000 0.000000 0.000000 14.133476 -0.088790 19.123480 60.577286 0.000000 29.219028 0.000000 0.000000 0.000000 0.000000 0.000000 0.000000 0.000000 0.000000 0.000000 0.000000 0.000000 0.000000 0.000000 0.000000 0.000000 0.000000 0.000000 0.000000 0.000000 0.000000 0.000000 0.000000 0.000000 0.000000 0.000000 0.000000 0.000000 0.000000 0.000000 0.000000 0.000000 0.000000 0.000000 0.000000 0.000000 0.000000 0.000000 0.000000 0.000000 0.000000 0.000000 0.000000 0.000000 0.000000 0.000000 0.000000 0.000000 0.000000 0.000000 12.326983 -12.808148 7.841662 11.732708 0.000001 0.000000 -16.506477 3.789855 2.586280 0.000000 0.000000 0.000000 -12.361056 13.805325 -1.024336 5.344739 0.000000 0.000000 3.937861 -3.334084 -1.413615 0.000000 0.000000 0.000000 
0.000000 83.590599 0.000000 0.000000 0.000000 0.000000 0.000000 0.000000 0.000000 3.471416 -0.460399 0.421563 3.471416 -0.460399 0.421563 0.000000 0.000000 0.000000 0.000000 0.000000 0.000000 0.000000 0.000000 -14.938548 20.815639 -25.791422 -58.313778 0.000000 -10.453445 0.000000 0.000000 0.000000 0.000000 0.000000 0.000000 0.000000 0.000000 0.000000 0.000000 0.000000 0.000000 0.000000 0.000000 0.000000 0.000000 0.000000 0.000000 0.000000 0.000000 0.000000 0.000000 0.000000 0.000000 0.000000 0.000000 0.000000 0.000000 0.000000 0.000000 0.000000 0.000000 0.000000 0.000000 0.000000 0.000000 0.000000 0.000000 0.000000 0.000000 0.000000 0.000000 0.000000 0.000000 0.000000 0.000000 0.000000 0.000000 0.000000 0.000000 0.000000 14.370307 1.054382 17.546896 61.090912 0.000000 28.310133 0.000000 0.000000 0.000000 0.000000 0.000000 0.000000 0.000000 0.000000 0.000000 0.000000 0.000000 0.000000 0.000000 0.000000 0.000000 0.000000 0.000000 0.000000 0.000000 0.000000 0.000000 0.000000 0.000000 0.000000 0.000000 0.000000 0.000000 0.000000 0.000000 0.000000 0.000000 0.000000 0.000000 0.000000 0.000000 0.000000 0.000000 0.000000 0.000000 0.000000 0.000000 0.000000 0.000000 0.000000 0.000000 0.000000 0.000000 0.000000 0.000000 13.944450 -12.687081 7.614055 11.909123 0.000001 0.000000 -14.019716 4.161714 2.701823 -0.081250 0.000000 0.000000 -11.578337 14.115693 -1.413891 7.149275 0.000001 0.000000 2.036422 -2.842704 -1.297946 0.000000 0.000000 0.000000 
